<mxfile host="65bd71144e">
    <diagram id="IbZ0twcvT1BVZpYRsOVE" name="Page-1">
        <mxGraphModel dx="1279" dy="1713" grid="1" gridSize="10" guides="1" tooltips="1" connect="1" arrows="1" fold="1" page="1" pageScale="1" pageWidth="850" pageHeight="1100" math="0" shadow="0">
            <root>
                <mxCell id="0"/>
                <mxCell id="1" parent="0"/>
                <mxCell id="2" value="&lt;h3&gt;&lt;font face=&quot;Tahoma&quot; color=&quot;#000000&quot;&gt;user rolls dice&lt;/font&gt;&lt;/h3&gt;" style="rounded=1;whiteSpace=wrap;html=1;fillColor=#fad7ac;strokeColor=#b46504;" vertex="1" parent="1">
                    <mxGeometry y="-40" width="120" height="40" as="geometry"/>
                </mxCell>
                <mxCell id="3" value="&lt;h3&gt;&lt;font face=&quot;Tahoma&quot; color=&quot;#000000&quot;&gt;generate random dice roll&lt;/font&gt;&lt;/h3&gt;" style="rounded=1;whiteSpace=wrap;html=1;fillColor=#d5e8d4;strokeColor=#82b366;gradientColor=#97d077;" vertex="1" parent="1">
                    <mxGeometry x="170" y="-40" width="120" height="40" as="geometry"/>
                </mxCell>
                <mxCell id="4" value="&lt;h3&gt;&lt;font face=&quot;Tahoma&quot; color=&quot;#000000&quot;&gt;display dice roll&lt;/font&gt;&lt;/h3&gt;" style="rounded=1;whiteSpace=wrap;html=1;fillColor=#d5e8d4;strokeColor=#82b366;gradientColor=#97d077;" vertex="1" parent="1">
                    <mxGeometry x="350" y="-40" width="120" height="40" as="geometry"/>
                </mxCell>
                <mxCell id="5" value="&lt;h3 style=&quot;&quot;&gt;is it a 1?&lt;/h3&gt;" style="rhombus;whiteSpace=wrap;html=1;fontFamily=Tahoma;fillColor=#dae8fc;gradientColor=#7ea6e0;strokeColor=#6c8ebf;fontColor=#000000;" vertex="1" parent="1">
                    <mxGeometry x="530" y="-55" width="150" height="70" as="geometry"/>
                </mxCell>
                <mxCell id="6" value="" style="shape=flexArrow;endArrow=classic;html=1;fontFamily=Tahoma;fontColor=#000000;fillColor=#0050ef;strokeColor=#001DBC;" edge="1" parent="1">
                    <mxGeometry width="50" height="50" relative="1" as="geometry">
                        <mxPoint x="120" y="-20.5" as="sourcePoint"/>
                        <mxPoint x="170" y="-20.5" as="targetPoint"/>
                        <Array as="points">
                            <mxPoint x="150" y="-20.5"/>
                        </Array>
                    </mxGeometry>
                </mxCell>
                <mxCell id="7" value="" style="shape=flexArrow;endArrow=classic;html=1;fontFamily=Tahoma;fontColor=#000000;fillColor=#0050ef;strokeColor=#001DBC;" edge="1" parent="1">
                    <mxGeometry width="50" height="50" relative="1" as="geometry">
                        <mxPoint x="290" y="-20.5" as="sourcePoint"/>
                        <mxPoint x="340" y="-20.5" as="targetPoint"/>
                        <Array as="points">
                            <mxPoint x="320" y="-20.5"/>
                        </Array>
                    </mxGeometry>
                </mxCell>
                <mxCell id="8" value="" style="shape=flexArrow;endArrow=classic;html=1;fontFamily=Tahoma;fontColor=#000000;fillColor=#0050ef;strokeColor=#001DBC;" edge="1" parent="1">
                    <mxGeometry width="50" height="50" relative="1" as="geometry">
                        <mxPoint x="470" y="-20.5" as="sourcePoint"/>
                        <mxPoint x="520" y="-20.5" as="targetPoint"/>
                        <Array as="points">
                            <mxPoint x="500" y="-20.5"/>
                        </Array>
                    </mxGeometry>
                </mxCell>
                <mxCell id="10" value="" style="shape=flexArrow;endArrow=classic;html=1;fontFamily=Tahoma;fontColor=#000000;fillColor=#0050ef;strokeColor=#001DBC;" edge="1" parent="1">
                    <mxGeometry width="50" height="50" relative="1" as="geometry">
                        <mxPoint x="680" y="-20.5" as="sourcePoint"/>
                        <mxPoint x="790.76" y="-20.5" as="targetPoint"/>
                        <Array as="points">
                            <mxPoint x="770.76" y="-20.5"/>
                        </Array>
                    </mxGeometry>
                </mxCell>
                <mxCell id="11" value="&lt;h3&gt;&lt;font color=&quot;#ffffff&quot;&gt;if yes&lt;/font&gt;&lt;/h3&gt;" style="rounded=1;whiteSpace=wrap;html=1;fontFamily=Tahoma;fontColor=#000000;strokeWidth=0;" vertex="1" parent="1">
                    <mxGeometry x="710" y="20" width="120" height="20" as="geometry"/>
                </mxCell>
                <mxCell id="12" value="&lt;h3&gt;&lt;font face=&quot;Tahoma&quot; color=&quot;#000000&quot;&gt;add dice roll to current&amp;nbsp;&lt;/font&gt;&lt;/h3&gt;" style="rounded=1;whiteSpace=wrap;html=1;fillColor=#d5e8d4;strokeColor=#82b366;gradientColor=#97d077;" vertex="1" parent="1">
                    <mxGeometry x="800" y="-40" width="120" height="40" as="geometry"/>
                </mxCell>
                <mxCell id="13" value="&lt;h3&gt;&lt;font face=&quot;Tahoma&quot; color=&quot;#000000&quot;&gt;display new score&lt;/font&gt;&lt;/h3&gt;" style="rounded=1;whiteSpace=wrap;html=1;fillColor=#d5e8d4;strokeColor=#82b366;gradientColor=#97d077;" vertex="1" parent="1">
                    <mxGeometry x="990" y="-40" width="120" height="40" as="geometry"/>
                </mxCell>
                <mxCell id="14" value="" style="shape=flexArrow;endArrow=classic;html=1;fontFamily=Tahoma;fontColor=#000000;fillColor=#0050ef;strokeColor=#001DBC;" edge="1" parent="1">
                    <mxGeometry width="50" height="50" relative="1" as="geometry">
                        <mxPoint x="920" y="-20.5" as="sourcePoint"/>
                        <mxPoint x="970" y="-20.5" as="targetPoint"/>
                        <Array as="points">
                            <mxPoint x="950" y="-20.5"/>
                        </Array>
                    </mxGeometry>
                </mxCell>
                <mxCell id="15" value="&lt;h3&gt;&lt;font face=&quot;Tahoma&quot; color=&quot;#000000&quot;&gt;user holds score&lt;/font&gt;&lt;/h3&gt;" style="rounded=1;whiteSpace=wrap;html=1;fillColor=#fad7ac;strokeColor=#b46504;" vertex="1" parent="1">
                    <mxGeometry y="77" width="120" height="40" as="geometry"/>
                </mxCell>
                <mxCell id="16" value="" style="shape=flexArrow;endArrow=classic;html=1;fontFamily=Tahoma;fontColor=#000000;fillColor=#0050ef;strokeColor=#001DBC;" edge="1" parent="1">
                    <mxGeometry width="50" height="50" relative="1" as="geometry">
                        <mxPoint x="120" y="97.5" as="sourcePoint"/>
                        <mxPoint x="170" y="97.5" as="targetPoint"/>
                        <Array as="points">
                            <mxPoint x="150" y="97.5"/>
                        </Array>
                    </mxGeometry>
                </mxCell>
                <mxCell id="17" value="&lt;h3&gt;&lt;font face=&quot;Tahoma&quot; color=&quot;#000000&quot;&gt;add current score to total score&lt;/font&gt;&lt;/h3&gt;" style="rounded=1;whiteSpace=wrap;html=1;fillColor=#d5e8d4;strokeColor=#82b366;gradientColor=#97d077;" vertex="1" parent="1">
                    <mxGeometry x="170" y="68" width="120" height="60" as="geometry"/>
                </mxCell>
                <mxCell id="18" value="&lt;h3 style=&quot;&quot;&gt;score&amp;gt;=100?&lt;/h3&gt;" style="rhombus;whiteSpace=wrap;html=1;fontFamily=Tahoma;fillColor=#dae8fc;gradientColor=#7ea6e0;strokeColor=#6c8ebf;fontColor=#000000;" vertex="1" parent="1">
                    <mxGeometry x="350" y="63" width="150" height="70" as="geometry"/>
                </mxCell>
                <mxCell id="19" value="" style="shape=flexArrow;endArrow=classic;html=1;fontFamily=Tahoma;fontColor=#000000;fillColor=#0050ef;strokeColor=#001DBC;" edge="1" parent="1">
                    <mxGeometry width="50" height="50" relative="1" as="geometry">
                        <mxPoint x="290" y="96.5" as="sourcePoint"/>
                        <mxPoint x="340" y="96.5" as="targetPoint"/>
                        <Array as="points">
                            <mxPoint x="320" y="96.5"/>
                        </Array>
                    </mxGeometry>
                </mxCell>
                <mxCell id="21" value="" style="shape=flexArrow;endArrow=classic;html=1;fontFamily=Tahoma;fontColor=#000000;fillColor=#0050ef;strokeColor=#001DBC;" edge="1" parent="1">
                    <mxGeometry width="50" height="50" relative="1" as="geometry">
                        <mxPoint x="500" y="97.5" as="sourcePoint"/>
                        <mxPoint x="610.76" y="97.5" as="targetPoint"/>
                        <Array as="points">
                            <mxPoint x="590.76" y="97.5"/>
                        </Array>
                    </mxGeometry>
                </mxCell>
                <mxCell id="22" value="&lt;h3&gt;&lt;font face=&quot;Tahoma&quot; color=&quot;#000000&quot;&gt;add current score to total score&lt;/font&gt;&lt;/h3&gt;" style="rounded=1;whiteSpace=wrap;html=1;fillColor=#d5e8d4;strokeColor=#82b366;gradientColor=#97d077;" vertex="1" parent="1">
                    <mxGeometry x="620" y="68" width="120" height="60" as="geometry"/>
                </mxCell>
                <mxCell id="23" value="&lt;h3&gt;&lt;font color=&quot;#ffffff&quot;&gt;if no&lt;/font&gt;&lt;/h3&gt;" style="rounded=1;whiteSpace=wrap;html=1;fontFamily=Tahoma;fontColor=#000000;strokeWidth=0;" vertex="1" parent="1">
                    <mxGeometry x="480" y="63" width="120" height="20" as="geometry"/>
                </mxCell>
                <mxCell id="24" value="" style="shape=flexArrow;endArrow=classic;html=1;fontFamily=Tahoma;fontColor=#FFFFFF;fillColor=#0050ef;strokeColor=#001DBC;" edge="1" parent="1" target="22">
                    <mxGeometry width="50" height="50" relative="1" as="geometry">
                        <mxPoint x="610" y="20" as="sourcePoint"/>
                        <mxPoint x="604.5" y="102" as="targetPoint"/>
                        <Array as="points">
                            <mxPoint x="700" y="30"/>
                        </Array>
                    </mxGeometry>
                </mxCell>
                <mxCell id="25" value="&lt;h3&gt;&lt;font color=&quot;#ffffff&quot;&gt;if no&lt;/font&gt;&lt;/h3&gt;" style="rounded=1;whiteSpace=wrap;html=1;fontFamily=Tahoma;fontColor=#000000;strokeWidth=0;" vertex="1" parent="1">
                    <mxGeometry x="680" y="-60" width="120" height="20" as="geometry"/>
                </mxCell>
                <mxCell id="27" value="" style="shape=flexArrow;endArrow=classic;html=1;fontFamily=Tahoma;fontColor=#FFFFFF;fillColor=#0050ef;strokeColor=#001DBC;" edge="1" parent="1">
                    <mxGeometry width="50" height="50" relative="1" as="geometry">
                        <mxPoint x="425" y="133" as="sourcePoint"/>
                        <mxPoint x="425" y="203" as="targetPoint"/>
                    </mxGeometry>
                </mxCell>
                <mxCell id="28" value="&lt;h3&gt;&lt;font color=&quot;#ffffff&quot;&gt;if yes&lt;/font&gt;&lt;/h3&gt;" style="rounded=1;whiteSpace=wrap;html=1;fontFamily=Tahoma;fontColor=#000000;strokeWidth=0;" vertex="1" parent="1">
                    <mxGeometry x="365" y="140" width="120" height="20" as="geometry"/>
                </mxCell>
                <mxCell id="29" value="&lt;h3&gt;&lt;font face=&quot;Tahoma&quot; color=&quot;#000000&quot;&gt;current player wins&lt;/font&gt;&lt;/h3&gt;" style="rounded=1;whiteSpace=wrap;html=1;fillColor=#f8cecc;strokeColor=#b85450;gradientColor=#ea6b66;" vertex="1" parent="1">
                    <mxGeometry x="370" y="210" width="120" height="40" as="geometry"/>
                </mxCell>
                <mxCell id="30" value="&lt;h3&gt;&lt;font face=&quot;Tahoma&quot; color=&quot;#000000&quot;&gt;user holds score&lt;/font&gt;&lt;/h3&gt;" style="rounded=1;whiteSpace=wrap;html=1;fillColor=#fad7ac;strokeColor=#b46504;" vertex="1" parent="1">
                    <mxGeometry x="1" y="278" width="120" height="40" as="geometry"/>
                </mxCell>
                <mxCell id="31" value="" style="shape=flexArrow;endArrow=classic;html=1;fontFamily=Tahoma;fontColor=#000000;fillColor=#0050ef;strokeColor=#001DBC;" edge="1" parent="1">
                    <mxGeometry width="50" height="50" relative="1" as="geometry">
                        <mxPoint x="122" y="296.5" as="sourcePoint"/>
                        <mxPoint x="172" y="296.5" as="targetPoint"/>
                        <Array as="points">
                            <mxPoint x="152" y="296.5"/>
                        </Array>
                    </mxGeometry>
                </mxCell>
                <mxCell id="32" value="&lt;h3&gt;&lt;font face=&quot;Tahoma&quot; color=&quot;#000000&quot;&gt;set all scores to 0&lt;/font&gt;&lt;/h3&gt;" style="rounded=1;whiteSpace=wrap;html=1;fillColor=#d5e8d4;strokeColor=#82b366;gradientColor=#97d077;" vertex="1" parent="1">
                    <mxGeometry x="177" y="280" width="120" height="40" as="geometry"/>
                </mxCell>
                <mxCell id="34" value="" style="shape=flexArrow;endArrow=classic;html=1;fontFamily=Tahoma;fontColor=#000000;fillColor=#0050ef;strokeColor=#001DBC;" edge="1" parent="1">
                    <mxGeometry width="50" height="50" relative="1" as="geometry">
                        <mxPoint x="297" y="299.5" as="sourcePoint"/>
                        <mxPoint x="347" y="299.5" as="targetPoint"/>
                        <Array as="points">
                            <mxPoint x="327" y="299.5"/>
                        </Array>
                    </mxGeometry>
                </mxCell>
                <mxCell id="35" value="&lt;h3&gt;&lt;font face=&quot;Tahoma&quot; color=&quot;#000000&quot;&gt;set player 1 as starting player&lt;/font&gt;&lt;/h3&gt;" style="rounded=1;whiteSpace=wrap;html=1;fillColor=#d5e8d4;strokeColor=#82b366;gradientColor=#97d077;" vertex="1" parent="1">
                    <mxGeometry x="361" y="282" width="120" height="40" as="geometry"/>
                </mxCell>
            </root>
        </mxGraphModel>
    </diagram>
</mxfile>